<svg xmlns="http://www.w3.org/2000/svg" x="0px" y="0px"
width="24" height="24"
viewBox="0 0 172 172"
style=" fill:#000000;"><g transform="translate(4.73,4.73) scale(0.945,0.945)"><g fill="none" fill-rule="nonzero" stroke="none" stroke-width="none" stroke-linecap="butt" stroke-linejoin="none" stroke-miterlimit="10" stroke-dasharray="" stroke-dashoffset="0" font-family="none" font-weight="none" font-size="none" text-anchor="none" style="mix-blend-mode: normal"><g fill="#ffffff" stroke="#ffffff" stroke-width="10" stroke-linejoin="round"><path d="M85.64167,157.66667c-39.41667,0 -71.30833,-32.25 -71.30833,-71.66667c0,-39.41667 31.89167,-71.66667 71.30833,-71.66667c29.38333,0 56.25833,18.63333 66.65,46.225l-13.25833,5.01667c-8.24167,-21.85833 -29.74167,-36.90833 -53.39167,-36.90833c-31.53333,0 -56.975,25.8 -56.975,57.33333c0,31.53333 25.44167,57.33333 56.975,57.33333c23.29167,0 44.075,-13.975 53.03333,-35.83333l13.25833,5.375c-11.10833,27.23333 -36.90833,44.79167 -66.29167,44.79167z"></path><path d="M161.25,39.41667l-10.75,35.83333l-32.25,-13.25833z"></path></g><path d="M0,172v-172h172v172z" fill="none" stroke="none" stroke-width="1" stroke-linejoin="miter"></path><g fill="#ffffff" stroke="none" stroke-width="1" stroke-linejoin="miter"><path d="M85.64167,157.66667c-39.41667,0 -71.30833,-32.25 -71.30833,-71.66667c0,-39.41667 31.89167,-71.66667 71.30833,-71.66667c29.38333,0 56.25833,18.63333 66.65,46.225l-13.25833,5.01667c-8.24167,-21.85833 -29.74167,-36.90833 -53.39167,-36.90833c-31.53333,0 -56.975,25.8 -56.975,57.33333c0,31.53333 25.44167,57.33333 56.975,57.33333c23.29167,0 44.075,-13.975 53.03333,-35.83333l13.25833,5.375c-11.10833,27.23333 -36.90833,44.79167 -66.29167,44.79167z"></path><path d="M161.25,39.41667l-10.75,35.83333l-32.25,-13.25833z"></path></g><path d="" fill="none" stroke="none" stroke-width="1" stroke-linejoin="miter"></path><path d="" fill="none" stroke="none" stroke-width="1" stroke-linejoin="miter"></path></g></g></svg>